<svg width="43" height="43" viewBox="0 0 43 43" fill="none" xmlns="http://www.w3.org/2000/svg">
<g clip-path="url(#clip0_81_1280)">
<path d="M6.29948 36.7005C4.24601 34.7172 2.60809 32.3448 1.4813 29.7217C0.354502 27.0986 -0.238602 24.2774 -0.263409 21.4227C-0.288216 18.5679 0.25577 15.7368 1.33681 13.0945C2.41785 10.4523 4.01429 8.05174 6.03298 6.03304C8.05168 4.01435 10.4522 2.41791 13.0945 1.33687C15.7367 0.255831 18.5678 -0.288155 21.4226 -0.263348C24.2774 -0.238541 27.0986 0.354563 29.7217 1.48136C32.3448 2.60815 34.7172 4.24607 36.7005 6.29954C40.6169 10.3545 42.784 15.7854 42.735 21.4227C42.686 27.0599 40.4249 32.4524 36.4386 36.4386C32.4523 40.4249 27.0598 42.686 21.4226 42.735C15.7854 42.784 10.3544 40.6169 6.29948 36.7005ZM24.51 21.5L30.5945 15.4155L27.563 12.384L21.5 18.4685L15.4155 12.384L12.384 15.4155L18.4685 21.5L12.384 27.5845L15.4155 30.616L21.5 24.5315L27.5845 30.616L30.616 27.5845L24.5315 21.5H24.51Z" fill="#A93A3B"/>
</g>
<defs>
<clipPath id="clip0_81_1280">
<rect width="43" height="43" fill="white"/>
</clipPath>
</defs>
</svg>
