<svg width="43" height="43" viewBox="0 0 43 43" fill="none" xmlns="http://www.w3.org/2000/svg">
<g clip-path="url(#clip0_81_1280)">
<rect x="9" y="9" width="24" height="26" fill="#E67071"/>
<path d="M25.2278 21.4893L30.948 15.7691L31.3016 15.4155L30.948 15.062L27.9165 12.0305L27.5623 11.6763L27.2088 12.0311L21.4993 17.7608L15.769 12.0305L15.4155 11.6769L15.0619 12.0305L12.0304 15.062L11.6769 15.4155L12.0304 15.7691L17.7614 21.5L12.0304 27.231L11.6769 27.5845L12.0304 27.9381L15.0619 30.9696L15.4155 31.3231L15.769 30.9696L21.5 25.2386L27.2309 30.9696L27.5845 31.3231L27.938 30.9696L30.9695 27.9381L31.3231 27.5845L30.9695 27.231L25.2278 21.4893ZM6.64683 36.3409C4.64112 34.4037 3.04129 32.0865 1.9407 29.5244C0.840113 26.9623 0.260802 24.2067 0.236572 21.4183C0.212342 18.63 0.743677 15.8647 1.79958 13.2839C2.85547 10.703 4.41479 8.35835 6.38654 6.3866C8.35828 4.41485 10.703 2.85554 13.2838 1.79964C15.8646 0.743738 18.6299 0.212403 21.4183 0.236633C24.2066 0.260863 26.9622 0.840174 29.5243 1.94076C32.0864 3.04135 34.4036 4.64118 36.3408 6.64689C40.1662 10.6075 42.2828 15.9122 42.235 21.4183C42.1871 26.9245 39.9786 32.1915 36.085 36.0851C32.1915 39.9787 26.9244 42.1872 21.4183 42.2351C15.9121 42.2829 10.6075 40.1662 6.64683 36.3409Z" fill="#A93A3B" stroke="#E67071"/>
</g>
<defs>
<clipPath id="clip0_81_1280">
<rect width="43" height="43" fill="white"/>
</clipPath>
</defs>
</svg>
