<svg width="31" height="31" viewBox="0 0 31 31" fill="none" xmlns="http://www.w3.org/2000/svg">
<path d="M27.7857 1.68848H3.21387C2.80983 1.68848 2.42233 1.84898 2.13663 2.13468C1.85093 2.42038 1.69043 2.80787 1.69043 3.21191V27.7861C1.69043 28.1902 1.85093 28.5777 2.13663 28.8634C2.42233 29.1491 2.80983 29.3096 3.21387 29.3096H16.4373V18.615H12.842V14.4455H16.4373V11.3705C16.4373 7.80332 18.617 5.86035 21.7998 5.86035C22.8739 5.85652 23.9473 5.91129 25.0154 6.02441V9.75332H22.8146C21.0826 9.75332 20.7475 10.576 20.7475 11.783V14.4455H24.8748L24.3381 18.615H20.7475V29.3119H27.7787C28.1826 29.3113 28.5697 29.1506 28.8553 28.865C29.1408 28.5795 29.3015 28.1923 29.3021 27.7885V3.21426C29.3028 2.81103 29.1435 2.42399 28.8593 2.13799C28.575 1.85198 28.189 1.69034 27.7857 1.68848Z" fill="white"/>
</svg>
