<svg width="30" height="31" viewBox="0 0 30 31" fill="none" xmlns="http://www.w3.org/2000/svg">
<path d="M27.2857 1.68848H2.71387C2.30983 1.68848 1.92233 1.84898 1.63663 2.13468C1.35093 2.42038 1.19043 2.80787 1.19043 3.21191V27.7861C1.19043 28.1902 1.35093 28.5777 1.63663 28.8634C1.92233 29.1491 2.30983 29.3096 2.71387 29.3096H15.9373V18.615H12.342V14.4455H15.9373V11.3705C15.9373 7.80332 18.117 5.86035 21.2998 5.86035C22.3739 5.85652 23.4473 5.91129 24.5154 6.02441V9.75332H22.3146C20.5826 9.75332 20.2475 10.576 20.2475 11.783V14.4455H24.3748L23.8381 18.615H20.2475V29.3119H27.2787C27.6826 29.3113 28.0697 29.1506 28.3553 28.865C28.6408 28.5795 28.8015 28.1923 28.8021 27.7885V3.21426C28.8028 2.81103 28.6435 2.42399 28.3593 2.13799C28.075 1.85198 27.689 1.69034 27.2857 1.68848Z" fill="black"/>
</svg>
