<svg width="43" height="43" viewBox="0 0 43 43" fill="none" xmlns="http://www.w3.org/2000/svg">
<rect x="5" y="7" width="32" height="29" fill="#E67071"/>
<path d="M9.54761 42.111C12.3647 42.4989 16.0358 42.5 21 42.5C25.9642 42.5 29.6358 42.4989 32.4529 42.111C35.2544 41.7252 37.1364 40.9654 38.5657 39.501L38.566 39.5006C39.9978 38.0368 40.7421 36.1053 41.1197 33.2311C41.499 30.3438 41.5 26.5814 41.5 21.5C41.5 16.4186 41.499 12.6568 41.1197 9.76942C40.7421 6.89529 39.9978 4.96307 38.5658 3.49697L38.5657 3.49685C37.1375 2.03365 35.2556 1.27432 32.4538 0.888783C29.6363 0.501111 25.9642 0.5 21 0.5C16.0358 0.5 12.3642 0.501111 9.54677 0.888783C6.74509 1.27429 4.86253 2.03358 3.43217 3.49688C2.00112 4.96409 1.25733 6.89642 0.880046 9.77018C0.501013 12.6573 0.5 16.4186 0.5 21.5C0.5 26.5814 0.501013 30.3433 0.880046 33.2304C1.25734 36.1042 2.00115 38.0358 3.43197 39.5008L9.54761 42.111ZM9.54761 42.111C6.74625 41.7252 4.86358 40.9654 3.43209 39.5009L9.54761 42.111ZM35.0714 31.5896C35.4592 31.1926 35.675 30.6565 35.675 30.1C35.675 29.5435 35.4592 29.0074 35.0714 28.6104C34.6832 28.213 34.1542 27.9875 33.6 27.9875H8.4C7.84583 27.9875 7.3168 28.213 6.92862 28.6104C6.54083 29.0074 6.325 29.5435 6.325 30.1C6.325 30.6565 6.54083 31.1926 6.92862 31.5896C7.3168 31.987 7.84583 32.2125 8.4 32.2125H33.6C34.1542 32.2125 34.6832 31.987 35.0714 31.5896ZM33.6 23.6125C34.1542 23.6125 34.6832 23.387 35.0714 22.9896C35.4592 22.5926 35.675 22.0565 35.675 21.5C35.675 20.9435 35.4592 20.4074 35.0714 20.0104C34.6832 19.613 34.1542 19.3875 33.6 19.3875H8.4C7.84583 19.3875 7.3168 19.613 6.92862 20.0104C6.54083 20.4074 6.325 20.9435 6.825 21.5C6.325 22.0565 6.54083 22.5926 6.92862 22.9896C7.3168 23.387 7.84583 23.6125 8.4 23.6125H33.6ZM35.0714 14.3896C35.4592 13.9926 35.675 13.4565 35.675 12.9C35.675 12.3435 35.4592 11.8074 35.0714 11.4104C34.6832 11.013 34.1542 10.7875 33.6 10.7875H8.4C7.84583 10.7875 7.3168 11.013 6.92862 11.4104C6.54083 11.8074 6.325 12.3435 6.325 12.9C6.325 13.4565 6.54083 13.9926 6.92862 14.3896C7.3168 14.787 7.84583 15.0125 8.4 15.0125H33.6C34.1542 15.0125 34.6832 14.787 35.0714 14.3896Z" fill="#A93A3B" stroke="#E67071"/>
</svg>
