<svg width="45" height="45" viewBox="0 0 45 45" fill="none" xmlns="http://www.w3.org/2000/svg">
<g clip-path="url(#clip0_159_44)">
<path d="M4.38625 40.6117L4.38613 40.6116C2.91102 39.1375 2.14532 37.1941 1.75684 34.3036C1.36645 31.3988 1.36539 27.6135 1.36539 22.5001C1.36539 17.3867 1.36645 13.6019 1.75684 10.6971C2.1453 7.80681 2.91097 5.8627 4.38624 4.38635C5.86372 2.91101 7.80793 2.14537 10.6979 1.75694C13.6024 1.36654 17.3866 1.36548 22.5 1.36548C27.6134 1.36548 31.3982 1.36654 34.3027 1.75694C37.1927 2.14539 39.1362 2.91105 40.6115 4.38622C42.088 5.86374 42.8542 7.80798 43.2429 10.698C43.6336 13.6025 43.6346 17.3867 43.6346 22.5001C43.6346 27.6135 43.6336 31.3983 43.2429 34.3027C42.8542 37.1928 42.088 39.1363 40.6117 40.6116L40.6114 40.6119C39.1372 42.0881 37.1939 42.8543 34.3035 43.243C31.3987 43.6336 27.6134 43.6347 22.5 43.6347C17.3866 43.6347 13.6018 43.6336 10.6971 43.243C7.80675 42.8543 5.86263 42.0881 4.38625 40.6117Z" fill="#3E3E3E" stroke="#777777"/>
<path d="M37.1034 13.8462C37.1034 14.2766 36.9324 14.6893 36.6281 14.9936C36.3238 15.2979 35.9111 15.4688 35.4808 15.4688H9.51923C9.08889 15.4688 8.67618 15.2979 8.37188 14.9936C8.06759 14.6893 7.89664 14.2766 7.89664 13.8462C7.89664 13.4159 8.06759 13.0032 8.37188 12.6989C8.67618 12.3946 9.08889 12.2236 9.51923 12.2236H35.4808C35.9111 12.2236 36.3238 12.3946 36.6281 12.6989C36.9324 13.0032 37.1034 13.4159 37.1034 13.8462ZM37.1034 22.5001C37.1034 22.9304 36.9324 23.3431 36.6281 23.6474C36.3238 23.9517 35.9111 24.1227 35.4808 24.1227H9.51923C9.08889 24.1227 8.67618 23.9517 8.37188 23.6474C8.06759 23.3431 7.89664 22.9304 7.89664 22.5001C7.89664 22.0697 8.06759 21.657 8.37188 21.3527C8.67618 21.0484 9.08889 20.8775 9.51923 20.8775H35.4808C35.9111 20.8775 36.3238 21.0484 36.6281 21.3527C36.9324 21.657 37.1034 22.0697 37.1034 22.5001ZM37.1034 31.1539C37.1034 31.5843 36.9324 31.997 36.6281 32.3013C36.3238 32.6056 35.9111 32.7765 35.4808 32.7765H9.51923C9.08889 32.7765 8.67618 32.6056 8.37188 32.3013C8.06759 31.997 7.89664 31.5843 7.89664 31.1539C7.89664 30.7236 8.06759 30.3109 8.37188 30.0066C8.67618 29.7023 9.08889 29.5313 9.51923 29.5313H35.4808C35.9111 29.5313 36.3238 29.7023 36.6281 30.0066C36.9324 30.3109 37.1034 30.7236 37.1034 31.1539Z" fill="#787878"/>
</g>
<defs>
<clipPath id="clip0_159_44">
<rect width="45" height="45" fill="white"/>
</clipPath>
</defs>
</svg>
