<svg width="37" height="36" viewBox="0 0 37 36" fill="none" xmlns="http://www.w3.org/2000/svg">
<path fill-rule="evenodd" clip-rule="evenodd" d="M3.20634 32.9362C5.83293 35.5 10.0541 35.5 18.5 35.5C26.9459 35.5 31.1689 35.5 33.7919 32.9362C36.4167 30.376 36.4167 26.2495 36.4167 18C36.4167 9.7505 36.4167 5.62575 33.7919 3.062C31.1707 0.5 26.9459 0.5 18.5 0.5C10.0541 0.5 5.83114 0.5 3.20634 3.062C0.583344 5.6275 0.583344 9.7505 0.583344 18C0.583344 26.2495 0.583344 30.3742 3.20634 32.9362ZM30.5938 25C30.5938 25.3481 30.4522 25.6819 30.2002 25.9281C29.9482 26.1742 29.6064 26.3125 29.25 26.3125H7.75001C7.39363 26.3125 7.05184 26.1742 6.79984 25.9281C6.54783 25.6819 6.40626 25.3481 6.40626 25C6.40626 24.6519 6.54783 24.3181 6.79984 24.0719C7.05184 23.8258 7.39363 23.6875 7.75001 23.6875H29.25C29.6064 23.6875 29.9482 23.8258 30.2002 24.0719C30.4522 24.3181 30.5938 24.6519 30.5938 25ZM29.25 19.3125C29.6064 19.3125 29.9482 19.1742 30.2002 18.9281C30.4522 18.6819 30.5938 18.3481 30.5938 18C30.5938 17.6519 30.4522 17.3181 30.2002 17.0719C29.9482 16.8258 29.6064 16.6875 29.25 16.6875H7.75001C7.39363 16.6875 7.05184 16.8258 6.79984 17.0719C6.54783 17.3181 6.40626 17.6519 6.40626 18C6.40626 18.3481 6.54783 18.6819 6.79984 18.9281C7.05184 19.1742 7.39363 19.3125 7.75001 19.3125H29.25ZM30.5938 11C30.5938 11.3481 30.4522 11.6819 30.2002 11.9281C29.9482 12.1742 29.6064 12.3125 29.25 12.3125H7.75001C7.39363 12.3125 7.05184 12.1742 6.79984 11.9281C6.54783 11.6819 6.40626 11.3481 6.40626 11C6.40626 10.6519 6.54783 10.3181 6.79984 10.0719C7.05184 9.82578 7.39363 9.6875 7.75001 9.6875H29.25C29.6064 9.6875 29.9482 9.82578 30.2002 10.0719C30.4522 10.3181 30.5938 10.6519 30.5938 11Z" fill="#A93A3B"/>
</svg>
