<svg width="43" height="42" viewBox="0 0 43 42" fill="none" xmlns="http://www.w3.org/2000/svg">
<rect x="8" y="9" width="27" height="24" fill="white"/>
<path d="M36.4428 35.5783L36.4424 35.5787C35.2397 36.7542 33.6504 37.3703 31.2644 37.6838C28.8652 37.999 25.7368 38 21.5 38C17.2632 38 14.1353 37.999 11.7361 37.6838C9.3502 37.3704 7.76028 36.7542 6.55571 35.5786C5.35468 34.4055 4.7265 32.8578 4.40655 30.5328C4.08446 28.1921 4.08334 25.1392 4.08334 21C4.08334 16.8608 4.08445 13.8083 4.40655 11.4677C4.72647 9.14282 5.35461 7.59457 6.55575 6.41965C7.75934 5.24494 9.34917 4.62923 11.7353 4.316C14.1348 4.00101 17.2632 4 21.5 4C25.7368 4 28.8657 4.00101 31.2651 4.316C33.6515 4.62926 35.2407 5.245 36.4424 6.41957L36.4425 6.41969C37.6445 7.59372 38.2731 9.14187 38.5933 11.467C38.9156 13.8079 38.9167 16.8608 38.9167 21C38.9167 25.1392 38.9156 28.1926 38.5933 30.5334C38.2731 32.8586 37.6445 34.4061 36.4428 35.5783ZM33.5496 29.2858C33.8966 28.9468 34.0938 28.4846 34.0938 28C34.0938 27.5154 33.8966 27.0532 33.5496 26.7142C33.2029 26.3757 32.7353 26.1875 32.25 26.1875H10.75C10.2648 26.1875 9.79709 26.3757 9.45047 26.7142C9.10344 27.0532 8.90626 27.5154 8.90626 28C8.90626 28.4846 9.10344 28.9468 9.45047 29.2858C9.79709 29.6243 10.2648 29.8125 10.75 29.8125H32.25C32.7353 29.8125 33.2029 29.6243 33.5496 29.2858ZM32.25 22.8125C32.7353 22.8125 33.2029 22.6243 33.5496 22.2858C33.8966 21.9468 34.0938 21.4846 34.0938 21C34.0938 20.5154 33.8966 20.0532 33.5496 19.7142C33.2029 19.3757 32.7353 19.1875 32.25 19.1875H10.75C10.2648 19.1875 9.79709 19.3757 9.45047 19.7142C9.10344 20.0532 8.90626 20.5154 8.90626 21C8.90626 21.4846 9.10344 21.9468 9.45047 22.2858C9.79709 22.6243 10.2648 22.8125 10.75 22.8125H32.25ZM33.5496 15.2858C33.8966 14.9468 34.0938 14.4846 34.0938 14C34.0938 13.5154 33.8966 13.0532 33.5496 12.7142C33.2029 12.3757 32.7353 12.1875 32.25 12.1875H10.75C10.2648 12.1875 9.79709 12.3757 9.45047 12.7142C9.10344 13.0532 8.90626 13.5154 8.90626 14C8.90626 14.4846 9.10344 14.9468 9.45047 15.2858C9.79709 15.6243 10.2648 15.8125 10.75 15.8125H32.25C32.7353 15.8125 33.2029 15.6243 33.5496 15.2858Z" fill="#A93A3B" stroke="white"/>
</svg>
