<svg width="36" height="35" viewBox="0 0 36 35" fill="none" xmlns="http://www.w3.org/2000/svg">
<path d="M19.4994 2.9183C20.5636 2.91421 21.6278 2.92491 22.6916 2.95038L22.9746 2.96059C23.3012 2.97226 23.6235 2.98684 24.0129 3.00434C25.5646 3.07726 26.6233 3.32226 27.5523 3.68247C28.5148 4.05288 29.3256 4.55455 30.1364 5.36538C30.8778 6.09397 31.4516 6.9753 31.8179 7.94809C32.1781 8.87705 32.4231 9.93726 32.496 11.4889C32.5135 11.8768 32.5281 12.2006 32.5398 12.5273L32.5485 12.8102C32.5744 13.8736 32.5856 14.9373 32.5821 16.001L32.5835 17.0889V18.9993C32.5871 20.0635 32.5759 21.1277 32.55 22.1916L32.5412 22.4746C32.5296 22.8012 32.515 23.1235 32.4975 23.5129C32.4246 25.0645 32.1766 26.1233 31.8179 27.0523C31.4528 28.0261 30.8789 28.9081 30.1364 29.6364C29.4072 30.3777 28.5254 30.9515 27.5523 31.3179C26.6233 31.6781 25.5646 31.9231 24.0129 31.996C23.6235 32.0135 23.3012 32.0281 22.9746 32.0398L22.6916 32.0485C21.6278 32.0744 20.5636 32.0856 19.4994 32.0821L18.4114 32.0835H16.5025C15.4383 32.0871 14.3741 32.0759 13.3102 32.05L13.0273 32.0412C12.6811 32.0287 12.335 32.0141 11.9889 31.9975C10.4373 31.9245 9.37852 31.6766 8.44811 31.3179C7.47494 30.9523 6.59345 30.3785 5.8654 29.6364C5.12317 28.9077 4.54885 28.0258 4.18248 27.0523C3.82227 26.1233 3.57727 25.0645 3.50436 23.5129C3.48812 23.1668 3.47353 22.8207 3.46061 22.4746L3.45332 22.1916C3.42643 21.1278 3.41428 20.0636 3.41686 18.9993V16.001C3.41279 14.9373 3.42348 13.8736 3.44894 12.8102L3.45915 12.5273C3.47082 12.2006 3.4854 11.8768 3.5029 11.4889C3.57582 9.9358 3.82082 8.87851 4.18102 7.94809C4.54761 6.97483 5.12305 6.09374 5.86686 5.36684C6.59441 4.62419 7.47534 4.04934 8.44811 3.68247C9.37852 3.32226 10.4358 3.07726 11.9889 3.00434L13.0273 2.96059L13.3102 2.9533C14.3736 2.92643 15.4373 2.91427 16.501 2.91684L19.4994 2.9183ZM18.0002 10.21C17.0341 10.1963 16.0748 10.3748 15.1783 10.7351C14.2817 11.0953 13.4657 11.6302 12.7777 12.3086C12.0896 12.987 11.5433 13.7953 11.1704 14.6867C10.7974 15.5781 10.6054 16.5347 10.6054 17.5009C10.6054 18.4671 10.7974 19.4237 11.1704 20.3151C11.5433 21.2065 12.0896 22.0148 12.7777 22.6932C13.4657 23.3716 14.2817 23.9065 15.1783 24.2667C16.0748 24.627 17.0341 24.8055 18.0002 24.7918C19.9341 24.7918 21.7887 24.0236 23.1562 22.6562C24.5236 21.2887 25.2919 19.434 25.2919 17.5002C25.2919 15.5663 24.5236 13.7116 23.1562 12.3442C21.7887 10.9767 19.9341 10.21 18.0002 10.21ZM18.0002 13.1266C18.5813 13.1159 19.1588 13.2211 19.6989 13.4361C20.2389 13.6511 20.7307 13.9715 21.1455 14.3787C21.5603 14.7858 21.8898 15.2716 22.1148 15.8075C22.3398 16.3435 22.4557 16.9189 22.4558 17.5002C22.4559 18.0814 22.3402 18.6569 22.1154 19.1929C21.8906 19.7289 21.5612 20.2148 21.1465 20.6221C20.7319 21.0294 20.2402 21.35 19.7002 21.5651C19.1602 21.7803 18.5828 21.8857 18.0016 21.8752C16.8413 21.8752 15.7285 21.4142 14.9081 20.5938C14.0876 19.7733 13.6266 18.6605 13.6266 17.5002C13.6266 16.3399 14.0876 15.2271 14.9081 14.4066C15.7285 13.5861 16.8413 13.1252 18.0016 13.1252L18.0002 13.1266ZM25.6564 8.02247C25.186 8.0413 24.741 8.24143 24.4148 8.58097C24.0886 8.9205 23.9064 9.37308 23.9064 9.84392C23.9064 10.3148 24.0886 10.7674 24.4148 11.1069C24.741 11.4464 25.186 11.6466 25.6564 11.6654C26.1399 11.6654 26.6036 11.4733 26.9454 11.1315C27.2873 10.7896 27.4794 10.3259 27.4794 9.84246C27.4794 9.359 27.2873 8.89533 26.9454 8.55347C26.6036 8.21161 26.1399 8.01955 25.6564 8.01955V8.02247Z" fill="white"/>
</svg>
