<svg width="35" height="35" viewBox="0 0 35 35" fill="none" xmlns="http://www.w3.org/2000/svg">
<path d="M18.9994 2.9183C20.0636 2.91421 21.1278 2.92491 22.1916 2.95038L22.4746 2.96059C22.8012 2.97226 23.1235 2.98684 23.5129 3.00434C25.0646 3.07726 26.1233 3.32226 27.0523 3.68247C28.0148 4.05288 28.8256 4.55455 29.6364 5.36538C30.3778 6.09397 30.9516 6.9753 31.3179 7.94809C31.6781 8.87705 31.9231 9.93726 31.996 11.4889C32.0135 11.8768 32.0281 12.2006 32.0398 12.5273L32.0485 12.8102C32.0744 13.8736 32.0856 14.9373 32.0821 16.001L32.0835 17.0889V18.9993C32.0871 20.0635 32.0759 21.1277 32.05 22.1916L32.0412 22.4745C32.0296 22.8012 32.015 23.1235 31.9975 23.5129C31.9246 25.0645 31.6766 26.1233 31.3179 27.0523C30.9528 28.0261 30.3789 28.9081 29.6364 29.6364C28.9072 30.3777 28.0254 30.9515 27.0523 31.3179C26.1233 31.6781 25.0646 31.9231 23.5129 31.996C23.1235 32.0135 22.8012 32.0281 22.4746 32.0398L22.1916 32.0485C21.1278 32.0744 20.0636 32.0856 18.9994 32.0821L17.9114 32.0835H16.0025C14.9383 32.0871 13.8741 32.0759 12.8102 32.05L12.5273 32.0412C12.1811 32.0287 11.835 32.0141 11.4889 31.9975C9.93727 31.9245 8.87852 31.6766 7.94811 31.3179C6.97494 30.9523 6.09345 30.3785 5.3654 29.6364C4.62317 28.9077 4.04885 28.0258 3.68248 27.0523C3.32227 26.1233 3.07727 25.0645 3.00436 23.5129C2.98812 23.1668 2.97353 22.8207 2.96061 22.4745L2.95332 22.1916C2.92643 21.1278 2.91428 20.0636 2.91686 18.9993V16.001C2.91279 14.9373 2.92348 13.8736 2.94894 12.8102L2.95915 12.5273C2.97082 12.2006 2.9854 11.8768 3.0029 11.4889C3.07582 9.9358 3.32082 8.87851 3.68102 7.94809C4.04761 6.97483 4.62305 6.09374 5.36686 5.36684C6.09441 4.62419 6.97534 4.04934 7.94811 3.68247C8.87852 3.32226 9.93581 3.07726 11.4889 3.00434L12.5273 2.96059L12.8102 2.9533C13.8736 2.92643 14.9373 2.91427 16.001 2.91684L18.9994 2.9183ZM17.5002 10.21C16.5341 10.1963 15.5748 10.3748 14.6783 10.7351C13.7817 11.0953 12.9657 11.6302 12.2777 12.3086C11.5896 12.987 11.0433 13.7953 10.6704 14.6867C10.2974 15.5781 10.1054 16.5347 10.1054 17.5009C10.1054 18.4671 10.2974 19.4237 10.6704 20.3151C11.0433 21.2065 11.5896 22.0148 12.2777 22.6932C12.9657 23.3716 13.7817 23.9065 14.6783 24.2667C15.5748 24.627 16.5341 24.8055 17.5002 24.7918C19.4341 24.7918 21.2887 24.0236 22.6562 22.6562C24.0236 21.2887 24.7919 19.434 24.7919 17.5002C24.7919 15.5663 24.0236 13.7116 22.6562 12.3442C21.2887 10.9767 19.4341 10.21 17.5002 10.21ZM17.5002 13.1266C18.0813 13.1159 18.6588 13.2211 19.1989 13.4361C19.7389 13.6511 20.2307 13.9715 20.6455 14.3787C21.0603 14.7858 21.3898 15.2716 21.6148 15.8075C21.8398 16.3435 21.9557 16.9189 21.9558 17.5002C21.9559 18.0814 21.8402 18.6569 21.6154 19.1929C21.3906 19.7289 21.0612 20.2148 20.6465 20.6221C20.2319 21.0294 19.7402 21.35 19.2002 21.5651C18.6602 21.7803 18.0828 21.8857 17.5016 21.8752C16.3413 21.8752 15.2285 21.4142 14.4081 20.5938C13.5876 19.7733 13.1266 18.6605 13.1266 17.5002C13.1266 16.3399 13.5876 15.2271 14.4081 14.4066C15.2285 13.5861 16.3413 13.1252 17.5016 13.1252L17.5002 13.1266ZM25.1564 8.02247C24.686 8.0413 24.241 8.24143 23.9148 8.58096C23.5886 8.9205 23.4064 9.37308 23.4064 9.84392C23.4064 10.3148 23.5886 10.7674 23.9148 11.1069C24.241 11.4464 24.686 11.6466 25.1564 11.6654C25.6399 11.6654 26.1036 11.4733 26.4454 11.1315C26.7873 10.7896 26.9794 10.3259 26.9794 9.84247C26.9794 9.359 26.7873 8.89533 26.4454 8.55347C26.1036 8.21161 25.6399 8.01955 25.1564 8.01955V8.02247Z" fill="black"/>
</svg>
