<?xml version="1.0" encoding="UTF-8"?><svg id="Layer_1" xmlns="http://www.w3.org/2000/svg" viewBox="0 0 517.05 892.05"><defs><style>.cls-1{fill:#a93a3a;}.cls-1,.cls-2{stroke-width:0px;}.cls-2{fill:#fff;}</style></defs><path class="cls-1" d="m119.67,892.05l150.95-430.56-56.02,67.59-104.18,29.8L0,419.86l.53-.95L191.41,75.08,453.91,0l-149.69,269.62-.36.22-99.98,61.5,202.6-57.95,110.57,139.19L119.67,892.05Zm159.99-446.55l-150.95,430.56,384.17-463.52-107.58-135.44-125.73,35.96-.45-1.56.45,1.56-97.48,27.88,119.73-73.65L447.27,5.27l-253.68,72.56L3.89,419.54l107.73,135.62,101.13-28.93,66.91-80.73Z"/><polygon class="cls-2" points="255.18 375.66 213.44 391.17 265.37 353.41 328.31 216.04 203.26 262.5 121.98 439.89 181.29 503.75 231.03 485.27 258.65 446.16 200.35 665.29 375.91 416.69 316.6 352.83 255.18 375.66"/></svg>