<svg width="36" height="35" viewBox="0 0 36 35" fill="none" xmlns="http://www.w3.org/2000/svg">
<path fill-rule="evenodd" clip-rule="evenodd" d="M24.819 3.83269C20.2309 2.80707 15.4728 2.80707 10.8847 3.83269L10.3903 3.94206C9.09968 4.23061 7.91433 4.87129 6.96592 5.79293C6.01751 6.71457 5.34315 7.88109 5.01778 9.1629C3.85475 13.7457 3.85475 18.5465 5.01778 23.1294C5.32807 24.3518 5.95608 25.4705 6.83812 26.372C7.72016 27.2735 8.82487 27.9258 10.0403 28.2627L10.7184 32.311C10.74 32.4396 10.7958 32.56 10.8797 32.6597C10.9637 32.7594 11.0729 32.8347 11.1959 32.8779C11.3189 32.9211 11.4512 32.9305 11.5791 32.9052C11.707 32.8799 11.8257 32.8207 11.923 32.7339L15.9057 29.1712C18.8954 29.3537 21.8959 29.1146 24.819 28.461L25.3149 28.3516C26.6055 28.0631 27.7908 27.4224 28.7392 26.5008C29.6876 25.5791 30.362 24.4126 30.6874 23.1308C31.8503 18.5479 31.8503 13.7472 30.6874 9.16435C30.3619 7.88236 29.6873 6.71571 28.7386 5.79406C27.7899 4.8724 26.6043 4.23183 25.3134 3.94352L24.819 3.83269ZM12.1155 9.04477C11.8444 9.00532 11.5681 9.05988 11.3324 9.19935H11.3119C10.7651 9.52019 10.2722 9.92415 9.85215 10.3996C9.50215 10.8035 9.31257 11.2119 9.26298 11.6056C9.23382 11.8389 9.25424 12.0752 9.32278 12.2983L9.34903 12.3129C9.74278 13.4694 10.2561 14.5821 10.8832 15.6291C11.6918 17.0999 12.6868 18.4601 13.8436 19.676L13.8786 19.7256L13.934 19.7664L13.9676 19.8058L14.0084 19.8408C15.2286 21.0011 16.592 22.0009 18.0655 22.8158C19.7499 23.7331 20.7722 24.1662 21.3861 24.3471V24.3558C21.5655 24.4112 21.7288 24.436 21.8936 24.436C22.4165 24.3974 22.9114 24.1848 23.2994 23.8323C23.7734 23.4123 24.1744 22.9179 24.4865 22.3681V22.3579C24.7796 21.8037 24.6805 21.2816 24.2576 20.9273C23.4081 20.185 22.4895 19.5258 21.5144 18.9585C20.8611 18.6041 20.1976 18.8185 19.9292 19.1773L19.3561 19.9006C19.0615 20.2594 18.5278 20.2098 18.5278 20.2098L18.5132 20.2185C14.5305 19.2021 13.4674 15.1698 13.4674 15.1698C13.4674 15.1698 13.4178 14.6214 13.7867 14.3414L14.5042 13.7639C14.8484 13.4839 15.0876 12.8219 14.7186 12.1685C14.1551 11.1925 13.4972 10.2743 12.7542 9.42685C12.5922 9.22742 12.365 9.09159 12.1126 9.04331L12.1155 9.04477ZM18.8442 7.29185C18.6508 7.29185 18.4654 7.36868 18.3286 7.50542C18.1919 7.64217 18.1151 7.82763 18.1151 8.02102C18.1151 8.21441 18.1919 8.39987 18.3286 8.53662C18.4654 8.67337 18.6508 8.75019 18.8442 8.75019C20.689 8.75019 22.2203 9.35248 23.4321 10.5075C24.0549 11.1389 24.5405 11.8871 24.8584 12.7066C25.1778 13.5277 25.3236 14.4041 25.2857 15.2821C25.2817 15.3778 25.2965 15.4734 25.3295 15.5634C25.3624 15.6534 25.4127 15.7361 25.4776 15.8066C25.6086 15.9491 25.7908 16.0337 25.9842 16.0419C26.1776 16.05 26.3663 15.9809 26.5088 15.8499C26.6513 15.7189 26.7359 15.5367 26.744 15.3433C26.7893 14.2634 26.61 13.1858 26.2176 12.1787C25.8234 11.1668 25.2258 10.2466 24.4617 9.47498L24.4471 9.4604C22.9436 8.02394 21.0405 7.29185 18.8442 7.29185ZM18.7947 9.68935C18.6013 9.68935 18.4158 9.76618 18.2791 9.90292C18.1423 10.0397 18.0655 10.2251 18.0655 10.4185C18.0655 10.6119 18.1423 10.7974 18.2791 10.9341C18.4158 11.0709 18.6013 11.1477 18.7947 11.1477H18.8194C20.1494 11.2425 21.1178 11.6858 21.7959 12.4135C22.4915 13.1631 22.8517 14.095 22.824 15.2471C22.8196 15.4404 22.8921 15.6277 23.0257 15.7676C23.1593 15.9075 23.343 15.9886 23.5364 15.993C23.7298 15.9974 23.917 15.9249 24.0569 15.7913C24.1968 15.6577 24.2779 15.474 24.2824 15.2806C24.3174 13.7683 23.8303 12.4631 22.8649 11.4219V11.4189C21.8776 10.3602 20.5228 9.80019 18.8924 9.69081L18.8676 9.6879L18.7947 9.68935ZM18.7669 12.1321C18.6694 12.1235 18.571 12.1346 18.4779 12.1648C18.3847 12.195 18.2985 12.2437 18.2246 12.308C18.1507 12.3722 18.0904 12.4507 18.0475 12.5388C18.0045 12.6268 17.9798 12.7226 17.9747 12.8205C17.9696 12.9183 17.9842 13.0161 18.0178 13.1082C18.0514 13.2002 18.1031 13.2845 18.17 13.3561C18.2369 13.4277 18.3175 13.4851 18.407 13.5249C18.4965 13.5646 18.5932 13.5859 18.6911 13.5875C19.3007 13.6196 19.6901 13.8033 19.9351 14.0498C20.1815 14.2977 20.3653 14.6958 20.3988 15.3185C20.4006 15.4164 20.4221 15.5129 20.462 15.6022C20.5019 15.6916 20.5594 15.772 20.6311 15.8387C20.7027 15.9054 20.787 15.957 20.879 15.9904C20.971 16.0238 21.0688 16.0383 21.1665 16.0331C21.2643 16.0279 21.3599 16.0031 21.4479 15.9601C21.5358 15.9172 21.6142 15.857 21.6784 15.7831C21.7426 15.7092 21.7912 15.6231 21.8214 15.53C21.8516 15.4369 21.8628 15.3387 21.8542 15.2412C21.8076 14.3662 21.5334 13.5933 20.9719 13.0246C20.4076 12.4558 19.639 12.1787 18.7669 12.1321Z" fill="white"/>
</svg>
