<svg width="35" height="35" viewBox="0 0 35 35" fill="none" xmlns="http://www.w3.org/2000/svg">
<g clip-path="url(#clip0_143_41)">
<path fill-rule="evenodd" clip-rule="evenodd" d="M17.5003 2.9165C9.44595 2.9165 2.91699 9.44546 2.91699 17.4998C2.91699 20.2561 3.68262 22.8373 5.01408 25.0365L3.71324 29.4582C3.63855 29.712 3.63364 29.9813 3.69902 30.2378C3.76439 30.4942 3.89764 30.7283 4.08477 30.9154C4.27189 31.1025 4.50596 31.2358 4.76239 31.3011C5.01882 31.3665 5.28812 31.3616 5.54199 31.2869L9.96366 29.9861C12.2367 31.3614 14.8436 32.0868 17.5003 32.0832C25.5547 32.0832 32.0837 25.5542 32.0837 17.4998C32.0837 9.44546 25.5547 2.9165 17.5003 2.9165ZM14.2016 20.8C17.1518 23.7488 19.9678 24.1382 20.9624 24.1746C22.4747 24.23 23.9476 23.075 24.5207 21.7348C24.5931 21.5681 24.6194 21.385 24.5968 21.2047C24.5742 21.0243 24.5036 20.8534 24.3924 20.7096C23.5932 19.6888 22.5126 18.9553 21.4568 18.2261C21.2363 18.0737 20.9654 18.0125 20.7009 18.0555C20.4363 18.0984 20.1987 18.2422 20.0378 18.4565L19.1628 19.7909C19.1168 19.8626 19.0451 19.9141 18.9624 19.9347C18.8798 19.9553 18.7923 19.9435 18.718 19.9017C18.1245 19.5619 17.2597 18.9844 16.6385 18.3632C16.0172 17.7419 15.4747 16.9165 15.1699 16.3609C15.1321 16.2903 15.1212 16.2084 15.1392 16.1304C15.1571 16.0523 15.2028 15.9835 15.2676 15.9365L16.6151 14.9361C16.8074 14.7689 16.9315 14.5368 16.9638 14.284C16.9961 14.0312 16.9342 13.7754 16.7901 13.5653C16.1368 12.6086 15.3755 11.3923 14.2716 10.5859C14.1291 10.4826 13.9622 10.4183 13.7873 10.3991C13.6124 10.3799 13.4355 10.4066 13.2741 10.4765C11.9324 11.0511 10.7716 12.524 10.827 14.0392C10.8634 15.0338 11.2528 17.8498 14.2016 20.8Z" fill="black"/>
</g>
<defs>
<clipPath id="clip0_143_41">
<rect width="35" height="35" fill="white"/>
</clipPath>
</defs>
</svg>
