<svg width="36" height="35" viewBox="0 0 36 35" fill="none" xmlns="http://www.w3.org/2000/svg">
<g clip-path="url(#clip0_84_1358)">
<path fill-rule="evenodd" clip-rule="evenodd" d="M18.0003 2.9165C9.94595 2.9165 3.41699 9.44546 3.41699 17.4998C3.41699 20.2561 4.18262 22.8373 5.51408 25.0365L4.21324 29.4582C4.13855 29.712 4.13364 29.9813 4.19902 30.2378C4.26439 30.4942 4.39764 30.7283 4.58477 30.9154C4.77189 31.1025 5.00596 31.2358 5.26239 31.3011C5.51882 31.3665 5.78812 31.3616 6.04199 31.2869L10.4637 29.9861C12.7367 31.3614 15.3436 32.0868 18.0003 32.0832C26.0547 32.0832 32.5837 25.5542 32.5837 17.4998C32.5837 9.44546 26.0547 2.9165 18.0003 2.9165ZM14.7016 20.8C17.6518 23.7488 20.4678 24.1382 21.4624 24.1746C22.9747 24.23 24.4476 23.075 25.0207 21.7348C25.0931 21.5681 25.1194 21.385 25.0968 21.2047C25.0742 21.0243 25.0036 20.8534 24.8924 20.7096C24.0932 19.6888 23.0126 18.9553 21.9568 18.2261C21.7363 18.0737 21.4654 18.0125 21.2009 18.0555C20.9363 18.0984 20.6987 18.2422 20.5378 18.4565L19.6628 19.7909C19.6168 19.8626 19.5451 19.9141 19.4624 19.9347C19.3798 19.9553 19.2923 19.9435 19.218 19.9017C18.6245 19.5619 17.7597 18.9844 17.1385 18.3632C16.5172 17.7419 15.9747 16.9165 15.6699 16.3609C15.6321 16.2903 15.6212 16.2084 15.6392 16.1304C15.6571 16.0523 15.7028 15.9835 15.7676 15.9365L17.1151 14.9361C17.3074 14.7689 17.4315 14.5368 17.4638 14.284C17.4961 14.0312 17.4342 13.7754 17.2901 13.5653C16.6368 12.6086 15.8755 11.3923 14.7716 10.5859C14.6291 10.4826 14.4622 10.4183 14.2873 10.3991C14.1124 10.3799 13.9355 10.4066 13.7741 10.4765C12.4324 11.0511 11.2716 12.524 11.327 14.0392C11.3634 15.0338 11.7528 17.8498 14.7016 20.8Z" fill="white"/>
</g>
<defs>
<clipPath id="clip0_84_1358">
<rect width="35" height="35" fill="white" transform="translate(0.5)"/>
</clipPath>
</defs>
</svg>
